# Blender 5.1.2
# www.blender.org
mtllib new bavel.mtl
o OptimizedCube
v -0.400000 -0.500000 0.400000
v -0.400000 -0.400000 0.500000
v -0.500000 -0.400000 0.400000
v -0.400000 -0.470711 0.470711
v -0.457735 -0.457735 0.457735
v -0.470711 -0.400000 0.470711
v -0.470711 -0.470711 0.400000
v -0.400000 0.400000 0.500000
v -0.400000 0.500000 0.400000
v -0.500000 0.400000 0.400000
v -0.400000 0.470711 0.470711
v -0.457735 0.457735 0.457735
v -0.470711 0.470711 0.400000
v -0.470711 0.400000 0.470711
v -0.400000 -0.500000 -0.400000
v -0.500000 -0.400000 -0.400000
v -0.400000 -0.400000 -0.500000
v -0.470711 -0.470711 -0.400000
v -0.457735 -0.457735 -0.457735
v -0.470711 -0.400000 -0.470711
v -0.400000 -0.470711 -0.470711
v -0.400000 0.500000 -0.400000
v -0.400000 0.400000 -0.500000
v -0.500000 0.400000 -0.400000
v -0.400000 0.470711 -0.470711
v -0.457735 0.457735 -0.457735
v -0.470711 0.400000 -0.470711
v -0.470711 0.470711 -0.400000
v 0.400000 -0.500000 0.400000
v 0.500000 -0.400000 0.400000
v 0.400000 -0.400000 0.500000
v 0.470711 -0.470711 0.400000
v 0.457735 -0.457735 0.457735
v 0.470711 -0.400000 0.470711
v 0.400000 -0.470711 0.470711
v 0.400000 0.500000 0.400000
v 0.400000 0.400000 0.500000
v 0.500000 0.400000 0.400000
v 0.400000 0.470711 0.470711
v 0.457735 0.457735 0.457735
v 0.470711 0.400000 0.470711
v 0.470711 0.470711 0.400000
v 0.400000 -0.500000 -0.400000
v 0.400000 -0.400000 -0.500000
v 0.500000 -0.400000 -0.400000
v 0.400000 -0.470711 -0.470711
v 0.457735 -0.457735 -0.457735
v 0.470711 -0.400000 -0.470711
v 0.470711 -0.470711 -0.400000
v 0.400000 0.500000 -0.400000
v 0.500000 0.400000 -0.400000
v 0.400000 0.400000 -0.500000
v 0.470711 0.470711 -0.400000
v 0.457735 0.457735 -0.457735
v 0.470711 0.400000 -0.470711
v 0.400000 0.470711 -0.470711
vn -0.3251 -0.8881 0.3251
vn -0.3251 -0.3251 0.8881
vn -0.8881 -0.3251 0.3251
vn -0.3251 0.3251 0.8881
vn -0.3251 0.8881 0.3251
vn -0.8881 0.3251 0.3251
vn -0.3251 -0.8881 -0.3251
vn -0.8881 -0.3251 -0.3251
vn -0.3251 -0.3251 -0.8881
vn -0.3251 0.8881 -0.3251
vn -0.3251 0.3251 -0.8881
vn -0.8881 0.3251 -0.3251
vn 0.3251 -0.8881 0.3251
vn 0.8881 -0.3251 0.3251
vn 0.3251 -0.3251 0.8881
vn 0.3251 0.8881 0.3251
vn 0.3251 0.3251 0.8881
vn 0.8881 0.3251 0.3251
vn 0.3251 -0.8881 -0.3251
vn 0.3251 -0.3251 -0.8881
vn 0.8881 -0.3251 -0.3251
vn 0.3251 0.8881 -0.3251
vn 0.8881 0.3251 -0.3251
vn 0.3251 0.3251 -0.8881
vn -0.3827 -0.9239 -0.0000
vn -0.9239 -0.3827 -0.0000
vn -0.3827 -0.0000 0.9239
vn -0.9239 -0.0000 0.3827
vn -0.3827 0.9239 -0.0000
vn -0.9239 0.3827 -0.0000
vn -0.3827 -0.0000 -0.9239
vn -0.9239 -0.0000 -0.3827
vn -0.0000 -0.9239 -0.3827
vn -0.0000 -0.3827 -0.9239
vn -0.0000 0.9239 -0.3827
vn -0.0000 0.3827 -0.9239
vn 0.9239 -0.0000 -0.3827
vn 0.3827 -0.0000 -0.9239
vn 0.3827 -0.9239 -0.0000
vn 0.9239 -0.3827 -0.0000
vn 0.3827 0.9239 -0.0000
vn 0.9239 0.3827 -0.0000
vn 0.3827 -0.0000 0.9239
vn 0.9239 -0.0000 0.3827
vn -0.0000 -0.9239 0.3827
vn -0.0000 -0.3827 0.9239
vn -0.0000 0.9239 0.3827
vn -0.0000 0.3827 0.9239
vn -0.0000 -1.0000 -0.0000
vn -1.0000 -0.0000 -0.0000
vn -0.0000 -0.0000 1.0000
vn -0.0000 1.0000 -0.0000
vn -0.0000 -0.0000 -1.0000
vn 1.0000 -0.0000 -0.0000
vt 0.150000 0.725000
vt 0.150000 0.750000
vt 0.135566 0.750000
vt 0.125000 0.725000
vt 0.400000 0.975000
vt 0.400000 1.000000
vt 0.385566 1.000000
vt 0.375000 0.975000
vt 0.400000 0.025000
vt 0.375000 0.025000
vt 0.375000 0.010566
vt 0.400000 0.000000
vt 0.600000 0.975000
vt 0.625000 0.975000
vt 0.625000 0.989434
vt 0.600000 1.000000
vt 0.850000 0.725000
vt 0.875000 0.725000
vt 0.875000 0.739434
vt 0.850000 0.750000
vt 0.600000 0.025000
vt 0.600000 0.000000
vt 0.614434 0.000000
vt 0.625000 0.025000
vt 0.150000 0.525000
vt 0.125000 0.525000
vt 0.125000 0.510566
vt 0.150000 0.500000
vt 0.400000 0.225000
vt 0.400000 0.250000
vt 0.380283 0.255283
vt 0.375000 0.225000
vt 0.400000 0.275000
vt 0.375000 0.275000
vt 0.850000 0.525000
vt 0.850000 0.500000
vt 0.864434 0.500000
vt 0.875000 0.525000
vt 0.600000 0.275000
vt 0.600000 0.250000
vt 0.619717 0.244717
vt 0.625000 0.275000
vt 0.600000 0.225000
vt 0.625000 0.225000
vt 0.350000 0.725000
vt 0.375000 0.725000
vt 0.378522 0.750000
vt 0.362500 0.762500
vt 0.400000 0.725000
vt 0.400000 0.750000
vt 0.400000 0.775000
vt 0.650000 0.725000
vt 0.637500 0.762500
vt 0.625000 0.746478
vt 0.625000 0.725000
vt 0.600000 0.775000
vt 0.600000 0.750000
vt 0.600000 0.725000
vt 0.350000 0.525000
vt 0.362500 0.487500
vt 0.375000 0.503522
vt 0.375000 0.525000
vt 0.400000 0.475000
vt 0.400000 0.500000
vt 0.400000 0.525000
vt 0.650000 0.525000
vt 0.625000 0.525000
vt 0.621478 0.500000
vt 0.637500 0.487500
vt 0.600000 0.525000
vt 0.600000 0.500000
vt 0.600000 0.475000
s 0
usemtl CubeMaterial
f 1/1/1 4/2/1 5/3/1 7/4/1
f 2/5/2 6/6/2 5/7/2 4/8/2
f 3/9/3 7/10/3 5/11/3 6/12/3
f 8/13/4 11/14/4 12/15/4 14/16/4
f 9/17/5 13/18/5 12/19/5 11/20/5
f 10/21/6 14/22/6 12/23/6 13/24/6
f 15/25/7 18/26/7 19/27/7 21/28/7
f 16/29/8 20/30/8 19/31/8 18/32/8
f 17/33/9 21/34/9 19/31/9 20/30/9
f 22/35/10 25/36/10 26/37/10 28/38/10
f 23/39/11 27/40/11 26/41/11 25/42/11
f 24/43/12 28/44/12 26/41/12 27/40/12
f 29/45/13 32/46/13 33/47/13 35/48/13
f 30/49/14 34/50/14 33/47/14 32/46/14
f 31/51/15 35/48/15 33/47/15 34/50/15
f 36/52/16 39/53/16 40/54/16 42/55/16
f 37/56/17 41/57/17 40/54/17 39/53/17
f 38/58/18 42/55/18 40/54/18 41/57/18
f 43/59/19 46/60/19 47/61/19 49/62/19
f 44/63/20 48/64/20 47/61/20 46/60/20
f 45/65/21 49/62/21 47/61/21 48/64/21
f 50/66/22 53/67/22 54/68/22 56/69/22
f 51/70/23 55/71/23 54/68/23 53/67/23
f 52/72/24 56/69/24 54/68/24 55/71/24
f 15/25/25 1/1/25 7/4/25 18/26/25
f 18/32/26 7/10/26 3/9/26 16/29/26
f 2/5/27 8/13/27 14/16/27 6/6/27
f 6/12/28 14/22/28 10/21/28 3/9/28
f 9/17/29 22/35/29 28/38/29 13/18/29
f 13/24/30 28/44/30 24/43/30 10/21/30
f 23/39/31 17/33/31 20/30/31 27/40/31
f 27/40/32 20/30/32 16/29/32 24/43/32
f 43/59/33 15/25/33 21/28/33 46/60/33
f 46/60/34 21/34/34 17/33/34 44/63/34
f 22/35/35 50/66/35 56/69/35 25/36/35
f 25/42/36 56/69/36 52/72/36 23/39/36
f 51/70/37 45/65/37 48/64/37 55/71/37
f 55/71/38 48/64/38 44/63/38 52/72/38
f 29/45/39 43/59/39 49/62/39 32/46/39
f 32/46/40 49/62/40 45/65/40 30/49/40
f 50/66/41 36/52/41 42/55/41 53/67/41
f 53/67/42 42/55/42 38/58/42 51/70/42
f 37/56/43 31/51/43 34/50/43 41/57/43
f 41/57/44 34/50/44 30/49/44 38/58/44
f 1/1/45 29/45/45 35/48/45 4/2/45
f 4/8/46 35/48/46 31/51/46 2/5/46
f 36/52/47 9/17/47 11/20/47 39/53/47
f 39/53/48 11/14/48 8/13/48 37/56/48
f 15/25/49 43/59/49 29/45/49 1/1/49
f 3/9/50 10/21/50 24/43/50 16/29/50
f 31/51/51 37/56/51 8/13/51 2/5/51
f 50/66/52 22/35/52 9/17/52 36/52/52
f 17/33/53 23/39/53 52/72/53 44/63/53
f 45/65/54 51/70/54 38/58/54 30/49/54
